<svg width="4061" height="3369" viewBox="0 0 4061 3369" fill="none" xmlns="http://www.w3.org/2000/svg">
<path fill-rule="evenodd" clip-rule="evenodd" d="M4061 0H0V1983.53L934.001 1858L990.501 1763L1083 1646.5L1149.5 1588.5L1233 1537.5L1346.5 1485.77L1450.5 1459.5L1530 1448H1612L1708.5 1459.5L1811 1485.77L1868.57 1504.88L1894.5 1519L1917.5 1504.88L1979.5 1482.83L2082 1434L2198.5 1405.5H2297.5L2358.5 1418L2417 1445.6L2486.5 1485L2566.5 1519L2620.5 1550L2680 1555L2731.5 1550L2781.5 1528L2829 1492L2870 1459.5L2927.5 1422.5L2976 1394L3024.77 1379H3077.5L3111.5 1388L3141.5 1415.5L3169 1449.5L4057 1550V2444V3366.5H2021H0V3369H4061V0Z" fill="black"/>
</svg>
