<svg width="4113" height="3424" viewBox="0 0 4113 3424" fill="none" xmlns="http://www.w3.org/2000/svg">
<path fill-rule="evenodd" clip-rule="evenodd" d="M4113 0H0V2002.09L960.5 1890L1017 1783L1095.5 1684L1169 1618L1219 1580L1316.5 1526.5L1395.5 1497L1441.5 1484L1522 1469L1586 1464.5L1696 1469L1802.5 1490L1892.5 1523L1930.5 1542L1982.5 1521L2068.5 1484L2174 1444L2257.5 1431H2309.5L2359 1436.5L2430.5 1461.5L2571 1537L2643 1572L2685.5 1586.5H2717.5H2750L2792.5 1576L2835 1549L2913 1490.5L2978 1448.5L3030 1423.5L3063.5 1414.5L3109.5 1411.5L3138.5 1423.5L3172.5 1443.5L4113 1525.92V0ZM4113 3420.97L0 3404.51V3424H4113V3420.97Z" fill="black"/>
</svg>
