<svg width="4095" height="2778" viewBox="0 0 4095 2778" fill="none" xmlns="http://www.w3.org/2000/svg">
<path fill-rule="evenodd" clip-rule="evenodd" d="M4095 0H0V1572H611.5L684.5 1520.5L719.5 1499L771 1469L832.5 1434L891 1408L954.5 1386L1021.5 1358.5L1097 1337.5L1228 1308.5L1324.5 1289L1425 1273.5L1532.5 1255.5L1639 1243L1703.5 1238L1760 1233.5L1823 1230.5L1838 1226.5L1852.5 1213.5L1868 1202.5L1880 1198L1892.5 1202.5L1903 1210L1916 1205.5L1953 1210L1964 1217L1980 1231.5L2056.5 1260H2321.5L2401.5 1219L2488 1184L2562.5 1140L3054 933.499L3274.5 944.499H3624.5L4094.5 933.499V1430V2152V2778H4095V0Z" fill="black"/>
</svg>
