<svg width="4113" height="3500" viewBox="0 0 4113 3500" fill="none" xmlns="http://www.w3.org/2000/svg">
<path fill-rule="evenodd" clip-rule="evenodd" d="M4113 0H0V3500H1V2139.5L958 1995L1022 1879L1100.5 1786.5L1178 1721L1270.5 1664L1341.5 1626L1410.5 1603L1471 1590L1526.5 1584L1594.5 1580H1669L1744 1590L1850 1625.5L1927 1655.5L1971 1635.5L2057.5 1602L2187.5 1549.5L2286 1543.5H2333L2433.5 1579.5L2554.5 1633.5L2648.5 1690L2695.5 1698H2738.5L2779.5 1690L2881.5 1629L2979.5 1556L3019.5 1536L3070 1530.5L3122.5 1536L3170 1561.5L4111 1590V3500H4113V0Z" fill="black"/>
</svg>
