<svg width="4113" height="3424" viewBox="0 0 4113 3424" fill="none" xmlns="http://www.w3.org/2000/svg">
<path fill-rule="evenodd" clip-rule="evenodd" d="M4113 0H0V2036.05L955.206 1911.02L1019.02 1794.14L1097.29 1700.94L1174.56 1634.94L1266.79 1577.51L1337.59 1539.22L1406.38 1516.05L1466.71 1502.95L1522.05 1496.91L1589.85 1492.87H1664.13L1738.91 1502.95L1844.6 1538.72L1921.38 1568.95L1965.25 1548.8L2051.5 1515.04L2181.12 1462.14L2279.33 1456.1H2326.19L2426.4 1492.37L2547.04 1546.78L2640.77 1603.71L2687.63 1611.77H2730.51L2771.39 1603.71L2873.09 1542.25L2970.8 1468.69L3010.69 1448.54L3061.04 1443L3113.39 1448.54L3160.75 1474.23L4113 1508.95V0ZM4113 3418.01L2932.5 3424H4113V3418.01Z" fill="black"/>
</svg>
