<svg width="4096" height="1617" viewBox="0 0 4096 1617" fill="none" xmlns="http://www.w3.org/2000/svg">
<path d="M0.5 1616.5L6 0H4095.5V1456L3330.5 1388L2865.5 1346.5L2726 1334.5L2651.5 1289.5L2521 1247L2454.5 1227.5L2395.5 1211.5L2352 1201L2311 1192.5L2260 1184.5L2237.5 1182.5L2203.5 1181L2172 1182L2149 1185L2128.5 1189L2057.5 1207.5L2036 1199.5L2017.5 1192.5L1981 1179L1966 1165.5L1954 1157.5L1917 1153L1904 1157.5L1893.5 1150L1881 1145.5L1869 1150L1839 1174L1824 1178L1797 1179.5L1760.5 1181L1738.5 1183L1644.5 1190L1586.5 1197L1528 1204L1414.5 1222.5L1326 1236.5L1216.5 1258.5L1116.5 1281L1069 1293L1022 1306.5L957.5 1332.5L891.5 1355.5L837.5 1379.5L783.5 1409.5L703 1457L662 1484L613.5 1519.5L310 1568L0.5 1616.5Z" fill="black"/>
</svg>
